<!-- Generated by IcoMoon.io -->
<svg version="1.1" xmlns="http://www.w3.org/2000/svg" width="512" height="512" viewBox="0 0 512 512">
<title></title>
<g id="icomoon-ignore">
</g>
<path d="M478.898 192h-28.703c-17.583 0-32.994-14.871-34.195-32v0c0.002-91.334-73.629-160-165.595-160h-83.912c-91.906 0-166.428 74-166.493 165.333v181.399c0 91.327 74.587 165.268 166.492 165.268h179.21c91.974 0 166.298-73.941 166.298-165.268v-117.191c0-18.251-14.72-37.541-33.102-37.541zM160 128h96c17.6 0 32 14.4 32 32s-14.4 32-32 32h-96c-17.6 0-32-14.4-32-32s14.4-32 32-32zM352 384h-192c-17.6 0-32-14.4-32-32s14.4-32 32-32h192c17.6 0 32 14.4 32 32s-14.4 32-32 32z"></path>
</svg>
