<!-- Generated by IcoMoon.io -->
<svg version="1.1" xmlns="http://www.w3.org/2000/svg" width="512" height="512" viewBox="0 0 512 512">
<title></title>
<g id="icomoon-ignore">
</g>
<path d="M464 0h-416c-26.4 0-48 21.6-48 48v416c0 26.4 21.6 48 48 48h416c26.4 0 48-21.6 48-48v-416c0-26.4-21.6-48-48-48zM430.8 170c-1.6 36-26.8 85.3-75.5 147.9-50.3 65.4-92.9 98.1-127.7 98.1-21.6 0-39.8-19.9-54.7-59.7-10-36.5-19.9-73-29.9-109.5-11-39.8-22.9-59.7-35.6-59.7-2.8 0-12.5 5.8-29 17.4l-17.4-22.4c18.3-16 36.3-32.1 54-48.1 24.4-21 42.6-32.1 54.8-33.2 28.8-2.8 46.5 16.9 53.2 59 7.2 45.5 12.2 73.7 15 84.8 8.3 37.7 17.4 56.5 27.4 56.5 7.7 0 19.4-12.2 34.9-36.7s23.8-43.1 24.9-55.9c2.2-21.1-6.1-31.7-24.9-31.7-8.9 0-18 2-27.4 6.1 18.2-59.5 52.9-88.5 104.2-86.8 38 1.1 55.9 25.7 53.7 73.9z"></path>
</svg>
